<?xml version="1.0" encoding="UTF-8" standalone="no"?>
<svg
   enable-background="new 0 0 512 512"
   height="512px"
   id="Layer_1"
   version="1.1"
   viewBox="0 0 512 512"
   width="512px"
   xml:space="preserve"
   sodipodi:docname="gmail.svg"
   inkscape:version="1.1.1 (3bf5ae0d25, 2021-09-20)"
   xmlns:inkscape="http://www.inkscape.org/namespaces/inkscape"
   xmlns:sodipodi="http://sodipodi.sourceforge.net/DTD/sodipodi-0.dtd"
   xmlns="http://www.w3.org/2000/svg"
   xmlns:svg="http://www.w3.org/2000/svg"><defs
     id="defs13" /><sodipodi:namedview
     id="namedview11"
     pagecolor="#ffffff"
     bordercolor="#666666"
     borderopacity="1.0"
     inkscape:pageshadow="2"
     inkscape:pageopacity="0.0"
     inkscape:pagecheckerboard="0"
     showgrid="false"
     inkscape:zoom="1.625"
     inkscape:cx="134.46154"
     inkscape:cy="256.30769"
     inkscape:window-width="1920"
     inkscape:window-height="1017"
     inkscape:window-x="-8"
     inkscape:window-y="-8"
     inkscape:window-maximized="1"
     inkscape:current-layer="Layer_1" /><g
     id="g4"><circle
       cx="255.99899"
       cy="256"
       id="circle2"
       r="246.455"
       style="fill:#e4c3de;fill-opacity:1" /></g><g
     id="Page-1"><g
       id="Icons-Communication"
       transform="translate(0.000000, -85.000000)"><g
         id="gmail"
         transform="translate(0.000000, 85.000000)"><path
           d="M384,128H128c-17.602,0-32,14.406-32,32v192c0,17.594,14.398,32,32,32h256     c17.594,0,32-14.406,32-32V160C416,142.406,401.594,128,384,128L384,128z M384,352h-32V211.203L256,272l-96-60.797V352h-32V160     h19.203L256,227.203L364.797,160H384V352L384,352z"
           fill="#FFFFFF"
           id="Shape"
           style="fill:#9e1ddd;fill-opacity:1" /><path
           style="fill:none;stroke-width:0.615385"
           d="M 124.301,383.36622 C 112.19273,381.76167 101.57993,372.98668 97.797949,361.45266 96.650744,357.95399 96.615385,354.80089 96.615385,256 c 0,-98.80089 0.03536,-101.95399 1.182564,-105.45266 C 101.05477,140.61492 109.38958,132.69078 120,129.4392 c 3.53553,-1.08346 9.31006,-1.13151 136,-1.13151 126.68993,0 132.46447,0.048 136,1.13151 10.56758,3.23845 18.54223,10.74793 21.99778,20.71465 l 1.38684,4 V 256 357.84615 l -1.38684,4 c -3.39912,9.80395 -11.10316,17.15983 -21.69009,20.70986 -3.24379,1.08771 -8.8127,1.13838 -133.84615,1.21766 -71.75385,0.0455 -132.12609,-0.13785 -134.16054,-0.40745 z m 36.00669,-101.21237 c 0,-38.41539 0.16886,-69.84616 0.37524,-69.84616 0.20638,0 21.40894,13.32293 47.11679,29.6065 25.70786,16.28358 47.21091,29.72924 47.78455,29.87925 0.63443,0.16591 19.36099,-11.33646 47.80628,-29.36395 25.71981,-16.30019 47.10945,-29.77548 47.53253,-29.94509 0.61268,-0.24562 0.76923,13.9198 0.76923,69.60361 V 352 H 368 384.30769 v -96 -96 h -10.11862 -10.11862 l -53.41984,33.04831 C 281.2697,211.22488 256.67692,226.09398 256,226.09074 c -0.67692,-0.003 -25.2644,-14.87497 -54.63884,-33.04831 L 147.95309,160 H 137.8227 127.69231 v 96 96 H 144 160.30769 Z"
           id="path2821" /><path
           style="fill:none;stroke-width:0.615385"
           d="M 124.301,383.36622 C 112.19273,381.76167 101.57993,372.98668 97.797949,361.45266 96.650744,357.95399 96.615385,354.80089 96.615385,256 c 0,-98.80089 0.03536,-101.95399 1.182564,-105.45266 C 101.05477,140.61492 109.38958,132.69078 120,129.4392 c 3.53553,-1.08346 9.31006,-1.13151 136,-1.13151 126.68993,0 132.46447,0.048 136,1.13151 10.61042,3.25158 18.94523,11.17572 22.20205,21.10814 1.14721,3.49867 1.18257,6.65177 1.18257,105.45266 0,98.80089 -0.0354,101.95399 -1.18257,105.45266 -3.20268,9.7673 -11.26618,17.53948 -21.89436,21.10335 -3.24379,1.08771 -8.8127,1.13838 -133.84615,1.21766 -71.75385,0.0455 -132.12609,-0.13785 -134.16054,-0.40745 z m 36.00669,-101.21237 c 0,-38.41539 0.1667,-69.84616 0.37044,-69.84616 0.20374,0 21.40257,13.30646 47.1085,29.5699 25.70595,16.26344 47.11152,29.7132 47.56795,29.88835 0.99477,0.38172 2.96839,-0.8297 54.89213,-33.69322 22.38954,-14.17077 40.87416,-25.76503 41.07693,-25.76503 0.20277,0 0.36867,31.43077 0.36867,69.84616 V 352 H 368 384.30769 v -96 -96 h -10.0953 -10.0953 l -53.41289,32.98981 c -29.37708,18.14439 -53.76923,33.12655 -54.20477,33.29369 -0.43555,0.16713 -5.71071,-2.73951 -11.72259,-6.4592 -6.01187,-3.7197 -30.26374,-18.70186 -53.89303,-33.29369 L 147.92146,160 h -10.11457 -10.11458 v 96 96 H 144 160.30769 Z"
           id="path2860" /><path
           style="fill:none;stroke-width:0.615385"
           d="m 124.301,383.36622 c -11.89481,-1.57626 -21.94787,-9.6932 -26.301968,-21.23645 l -1.383647,-3.66823 -0.182903,-100.30769 c -0.131364,-72.04264 0.011,-101.34813 0.505232,-104 C 99.061669,142.75738 108.08106,133.09177 120,129.4392 c 3.53542,-1.08343 9.30107,-1.13151 135.69231,-1.13151 109.81287,0 132.5689,0.14193 135.38461,0.84441 10.43255,2.60275 19.80704,11.27598 23.12513,21.39524 1.14721,3.49867 1.18257,6.65177 1.18257,105.45266 0,98.80089 -0.0354,101.95399 -1.18257,105.45266 -2.38865,7.28475 -8.6076,14.71619 -15.3003,18.28336 -7.98155,4.25412 3.83563,3.9156 -140.44021,4.02314 -71.75385,0.0535 -132.12609,-0.12334 -134.16054,-0.39294 z m 36.00669,-101.27821 c 0,-55.68142 0.15658,-69.85014 0.76923,-69.6081 0.42308,0.16714 17.93846,11.1713 38.92308,24.45368 20.98462,13.2824 42.08781,26.61946 46.89598,29.63792 l 8.74214,5.48811 1.9391,-1.00274 c 2.42723,-1.25517 18.95132,-11.62103 60.26893,-37.80781 17.76923,-11.262 32.65385,-20.61061 33.07693,-20.77471 0.61262,-0.2376 0.76923,13.93519 0.76923,69.61365 V 352 H 368 384.30769 v -96 -96 h -10.06012 -10.06012 l -53.47834,33.04946 C 281.29602,211.22667 256.67692,226.09836 256,226.09766 255.32308,226.09705 230.71981,211.2247 201.32607,193.0482 L 147.88291,160 h -10.0953 -10.0953 v 96 96 H 144 160.30769 Z"
           id="path2899" /><path
           style="fill:none;stroke-width:0.615385"
           d="m 124.301,383.36622 c -11.89481,-1.57626 -21.94787,-9.6932 -26.301968,-21.23645 l -1.383647,-3.66823 -0.182903,-100.30769 c -0.131364,-72.04264 0.011,-101.34813 0.505232,-104 C 99.061669,142.75738 108.08106,133.09177 120,129.4392 c 3.53542,-1.08343 9.30107,-1.13151 135.69231,-1.13151 109.81287,0 132.5689,0.14193 135.38461,0.84441 10.43255,2.60275 19.80704,11.27598 23.12513,21.39524 1.14721,3.49867 1.18257,6.65177 1.18257,105.45266 0,98.80089 -0.0354,101.95399 -1.18257,105.45266 -2.38865,7.28475 -8.6076,14.71619 -15.3003,18.28336 -7.98155,4.25412 3.83563,3.9156 -140.44021,4.02314 -71.75385,0.0535 -132.12609,-0.12334 -134.16054,-0.39294 z m 36.00669,-101.27821 c 0,-55.68142 0.15658,-69.85014 0.76923,-69.6081 0.42308,0.16714 17.93846,11.1713 38.92308,24.45368 20.98462,13.2824 42.08781,26.61946 46.89598,29.63792 l 8.74214,5.48811 1.9391,-1.00274 c 2.42723,-1.25517 18.95132,-11.62103 60.26893,-37.80781 17.76923,-11.262 32.65385,-20.61061 33.07693,-20.77471 0.61262,-0.2376 0.76923,13.93519 0.76923,69.61365 V 352 H 368 384.30769 v -96 -96 h -10.06012 -10.06012 l -53.47834,33.04946 C 281.29602,211.22667 256.67692,226.09836 256,226.09766 255.32308,226.09705 230.71981,211.2247 201.32607,193.0482 L 147.88291,160 h -10.0953 -10.0953 v 96 96 H 144 160.30769 Z"
           id="path2975" /><path
           style="fill:none;stroke-width:0.615385"
           d="m 124.301,383.36622 c -11.89481,-1.57626 -21.94787,-9.6932 -26.301968,-21.23645 l -1.383647,-3.66823 -0.182903,-100.30769 c -0.131364,-72.04264 0.011,-101.34813 0.505232,-104 C 99.061669,142.75738 108.08106,133.09177 120,129.4392 c 3.53542,-1.08343 9.30107,-1.13151 135.69231,-1.13151 109.81287,0 132.5689,0.14193 135.38461,0.84441 10.43255,2.60275 19.80704,11.27598 23.12513,21.39524 1.14721,3.49867 1.18257,6.65177 1.18257,105.45266 0,98.80089 -0.0354,101.95399 -1.18257,105.45266 -2.38865,7.28475 -8.6076,14.71619 -15.3003,18.28336 -7.98155,4.25412 3.83563,3.9156 -140.44021,4.02314 -71.75385,0.0535 -132.12609,-0.12334 -134.16054,-0.39294 z m 36.00669,-101.27821 c 0,-55.68142 0.15658,-69.85014 0.76923,-69.6081 0.42308,0.16714 17.93846,11.1713 38.92308,24.45368 20.98462,13.2824 42.08781,26.61946 46.89598,29.63792 l 8.74214,5.48811 1.9391,-1.00274 c 2.42723,-1.25517 18.95132,-11.62103 60.26893,-37.80781 17.76923,-11.262 32.65385,-20.61061 33.07693,-20.77471 0.61262,-0.2376 0.76923,13.93519 0.76923,69.61365 V 352 H 368 384.30769 v -96 -96 h -10.06012 -10.06012 l -53.47834,33.04946 C 281.29602,211.22667 256.67692,226.09836 256,226.09766 255.32308,226.09705 230.71981,211.2247 201.32607,193.0482 L 147.88291,160 h -10.0953 -10.0953 v 96 96 H 144 160.30769 Z"
           id="path3014" /><path
           style="fill:none;stroke-width:0.615385"
           d="m 124.301,383.36622 c -11.89481,-1.57626 -21.94787,-9.6932 -26.301968,-21.23645 l -1.383647,-3.66823 -0.182903,-100.30769 c -0.131364,-72.04264 0.011,-101.34813 0.505232,-104 C 99.061669,142.75738 108.08106,133.09177 120,129.4392 c 3.53542,-1.08343 9.30107,-1.13151 135.69231,-1.13151 109.81287,0 132.5689,0.14193 135.38461,0.84441 10.43255,2.60275 19.80704,11.27598 23.12513,21.39524 1.14721,3.49867 1.18257,6.65177 1.18257,105.45266 0,98.80089 -0.0354,101.95399 -1.18257,105.45266 -2.38865,7.28475 -8.6076,14.71619 -15.3003,18.28336 -7.98155,4.25412 3.83563,3.9156 -140.44021,4.02314 -71.75385,0.0535 -132.12609,-0.12334 -134.16054,-0.39294 z m 36.00669,-101.27821 c 0,-55.68142 0.15658,-69.85014 0.76923,-69.6081 0.42308,0.16714 17.93846,11.1713 38.92308,24.45368 20.98462,13.2824 42.08781,26.61946 46.89598,29.63792 l 8.74214,5.48811 1.9391,-1.00274 c 2.42723,-1.25517 18.95132,-11.62103 60.26893,-37.80781 17.76923,-11.262 32.65385,-20.61061 33.07693,-20.77471 0.61262,-0.2376 0.76923,13.93519 0.76923,69.61365 V 352 H 368 384.30769 v -96 -96 h -10.06012 -10.06012 l -53.47834,33.04946 C 281.29602,211.22667 256.67692,226.09836 256,226.09766 255.32308,226.09705 230.71981,211.2247 201.32607,193.0482 L 147.88291,160 h -10.0953 -10.0953 v 96 96 H 144 160.30769 Z"
           id="path3053" /><path
           style="fill:none;stroke-width:0.615385"
           d="m 124.301,383.36622 c -11.89481,-1.57626 -21.94787,-9.6932 -26.301968,-21.23645 l -1.383647,-3.66823 -0.182903,-100.30769 c -0.131364,-72.04264 0.011,-101.34813 0.505232,-104 C 99.061669,142.75738 108.08106,133.09177 120,129.4392 c 3.53542,-1.08343 9.30107,-1.13151 135.69231,-1.13151 109.81287,0 132.5689,0.14193 135.38461,0.84441 10.43255,2.60275 19.80704,11.27598 23.12513,21.39524 1.14721,3.49867 1.18257,6.65177 1.18257,105.45266 0,98.80089 -0.0354,101.95399 -1.18257,105.45266 -2.38865,7.28475 -8.6076,14.71619 -15.3003,18.28336 -7.98155,4.25412 3.83563,3.9156 -140.44021,4.02314 -71.75385,0.0535 -132.12609,-0.12334 -134.16054,-0.39294 z m 36.00669,-101.27821 c 0,-55.68142 0.15658,-69.85014 0.76923,-69.6081 0.42308,0.16714 17.93846,11.1713 38.92308,24.45368 20.98462,13.2824 42.08781,26.61946 46.89598,29.63792 l 8.74214,5.48811 1.9391,-1.00274 c 2.42723,-1.25517 18.95132,-11.62103 60.26893,-37.80781 17.76923,-11.262 32.65385,-20.61061 33.07693,-20.77471 0.61262,-0.2376 0.76923,13.93519 0.76923,69.61365 V 352 H 368 384.30769 v -96 -96 h -10.06012 -10.06012 l -53.47834,33.04946 C 281.29602,211.22667 256.67692,226.09836 256,226.09766 255.32308,226.09705 230.71981,211.2247 201.32607,193.0482 L 147.88291,160 h -10.0953 -10.0953 v 96 96 H 144 160.30769 Z"
           id="path3092" /><path
           style="fill:none;stroke-width:0.615385"
           d="m 124.301,383.36622 c -11.89481,-1.57626 -21.94787,-9.6932 -26.301968,-21.23645 l -1.383647,-3.66823 -0.182903,-100.30769 c -0.131364,-72.04264 0.011,-101.34813 0.505232,-104 C 99.061669,142.75738 108.08106,133.09177 120,129.4392 c 3.53542,-1.08343 9.30107,-1.13151 135.69231,-1.13151 109.81287,0 132.5689,0.14193 135.38461,0.84441 10.43255,2.60275 19.80704,11.27598 23.12513,21.39524 1.14721,3.49867 1.18257,6.65177 1.18257,105.45266 0,98.80089 -0.0354,101.95399 -1.18257,105.45266 -2.38865,7.28475 -8.6076,14.71619 -15.3003,18.28336 -7.98155,4.25412 3.83563,3.9156 -140.44021,4.02314 -71.75385,0.0535 -132.12609,-0.12334 -134.16054,-0.39294 z m 36.00669,-101.27821 c 0,-55.68142 0.15658,-69.85014 0.76923,-69.6081 0.42308,0.16714 17.93846,11.1713 38.92308,24.45368 20.98462,13.2824 42.08781,26.61946 46.89598,29.63792 l 8.74214,5.48811 1.9391,-1.00274 c 2.42723,-1.25517 18.95132,-11.62103 60.26893,-37.80781 17.76923,-11.262 32.65385,-20.61061 33.07693,-20.77471 0.61262,-0.2376 0.76923,13.93519 0.76923,69.61365 V 352 H 368 384.30769 v -96 -96 h -10.06012 -10.06012 l -53.47834,33.04946 C 281.29602,211.22667 256.67692,226.09836 256,226.09766 255.32308,226.09705 230.71981,211.2247 201.32607,193.0482 L 147.88291,160 h -10.0953 -10.0953 v 96 96 H 144 160.30769 Z"
           id="path3131" /><path
           style="fill:none;stroke-width:0.615385"
           d="m 124.301,383.36622 c -11.89481,-1.57626 -21.94787,-9.6932 -26.301968,-21.23645 l -1.383647,-3.66823 -0.182903,-100.30769 c -0.131364,-72.04264 0.011,-101.34813 0.505232,-104 C 99.061669,142.75738 108.08106,133.09177 120,129.4392 c 3.53542,-1.08343 9.30107,-1.13151 135.69231,-1.13151 109.81287,0 132.5689,0.14193 135.38461,0.84441 10.43255,2.60275 19.80704,11.27598 23.12513,21.39524 1.14721,3.49867 1.18257,6.65177 1.18257,105.45266 0,98.80089 -0.0354,101.95399 -1.18257,105.45266 -2.38865,7.28475 -8.6076,14.71619 -15.3003,18.28336 -7.98155,4.25412 3.83563,3.9156 -140.44021,4.02314 -71.75385,0.0535 -132.12609,-0.12334 -134.16054,-0.39294 z m 36.00669,-101.27821 c 0,-55.68142 0.15658,-69.85014 0.76923,-69.6081 0.42308,0.16714 17.93846,11.1713 38.92308,24.45368 20.98462,13.2824 42.08781,26.61946 46.89598,29.63792 l 8.74214,5.48811 1.9391,-1.00274 c 2.42723,-1.25517 18.95132,-11.62103 60.26893,-37.80781 17.76923,-11.262 32.65385,-20.61061 33.07693,-20.77471 0.61262,-0.2376 0.76923,13.93519 0.76923,69.61365 V 352 H 368 384.30769 v -96 -96 h -10.06012 -10.06012 l -53.47834,33.04946 C 281.29602,211.22667 256.67692,226.09836 256,226.09766 255.32308,226.09705 230.71981,211.2247 201.32607,193.0482 L 147.88291,160 h -10.0953 -10.0953 v 96 96 H 144 160.30769 Z"
           id="path3170" /></g></g></g></svg>
