<?xml version="1.0" encoding="UTF-8" standalone="no"?>
<svg
   viewBox="0 0 16 16"
   version="1.1"
   id="svg6"
   sodipodi:docname="instagram_black.svg"
   inkscape:version="1.1.1 (3bf5ae0d25, 2021-09-20)"
   xmlns:inkscape="http://www.inkscape.org/namespaces/inkscape"
   xmlns:sodipodi="http://sodipodi.sourceforge.net/DTD/sodipodi-0.dtd"
   xmlns="http://www.w3.org/2000/svg"
   xmlns:svg="http://www.w3.org/2000/svg">
  <defs
     id="defs10" />
  <sodipodi:namedview
     id="namedview8"
     pagecolor="#ffffff"
     bordercolor="#666666"
     borderopacity="1.0"
     inkscape:pageshadow="2"
     inkscape:pageopacity="0.0"
     inkscape:pagecheckerboard="0"
     showgrid="false"
     inkscape:zoom="52"
     inkscape:cx="7.9903846"
     inkscape:cy="8.0096154"
     inkscape:window-width="1920"
     inkscape:window-height="1017"
     inkscape:window-x="-8"
     inkscape:window-y="-8"
     inkscape:window-maximized="1"
     inkscape:current-layer="svg6" />
  <path
     d="M5.41421,1.17157c1.17157,1.17157 1.17157,3.07107 0,4.24264c-1.17157,1.17157 -3.07107,1.17157 -4.24264,0c-1.17157,-1.17157 -1.17157,-3.07107 -8.88178e-16,-4.24264c1.17157,-1.17157 3.07107,-1.17157 4.24264,-8.88178e-16"
     transform="translate(4.707 4.707)"
     id="path2"
     style="fill:#ffffff" />
  <path
     d="M11.5,0h-7c-2.48145,0 -4.5,2.01855 -4.5,4.5v7c0,2.48145 2.01855,4.5 4.5,4.5h7c2.48145,0 4.5,-2.01855 4.5,-4.5v-7c0,-2.48145 -2.01855,-4.5 -4.5,-4.5Zm-3.5,12c-2.20557,0 -4,-1.79395 -4,-4c0,-2.20605 1.79443,-4 4,-4c2.20557,0 4,1.79395 4,4c0,2.20605 -1.79443,4 -4,4Zm4.5,-8c-0.276123,0 -0.5,-0.223877 -0.5,-0.5c0,-0.276184 0.223877,-0.5 0.5,-0.5c0.276123,0 0.5,0.223816 0.5,0.5c0,0.276123 -0.223877,0.5 -0.5,0.5Z"
     id="path4"
     style="fill:#e4c3de;fill-opacity:1" />
</svg>
