<?xml version="1.0" encoding="UTF-8" standalone="no"?>
<svg
   viewBox="0 0 80 80"
   version="1.1"
   id="svg12"
   sodipodi:docname="instagram.svg"
   inkscape:version="1.1.1 (3bf5ae0d25, 2021-09-20)"
   xmlns:inkscape="http://www.inkscape.org/namespaces/inkscape"
   xmlns:sodipodi="http://sodipodi.sourceforge.net/DTD/sodipodi-0.dtd"
   xmlns="http://www.w3.org/2000/svg"
   xmlns:svg="http://www.w3.org/2000/svg">
  <defs
     id="defs16" />
  <sodipodi:namedview
     id="namedview14"
     pagecolor="#505050"
     bordercolor="#ffffff"
     borderopacity="1"
     inkscape:pageshadow="0"
     inkscape:pageopacity="0"
     inkscape:pagecheckerboard="1"
     showgrid="false"
     inkscape:zoom="10.4"
     inkscape:cx="39.951923"
     inkscape:cy="40.048077"
     inkscape:window-width="1920"
     inkscape:window-height="1017"
     inkscape:window-x="-8"
     inkscape:window-y="-8"
     inkscape:window-maximized="1"
     inkscape:current-layer="레이어_1-2" />
  <title
     id="title2" />
  <g
     data-name="레이어 2"
     id="레이어_2">
    <g
       data-name="레이어 1"
       id="레이어_1-2">
      <path
         d="M49.65,20.92H30.35a9.42,9.42,0,0,0-9.42,9.42V49.65a9.42,9.42,0,0,0,9.42,9.42H49.65a9.42,9.42,0,0,0,9.42-9.42V30.35A9.42,9.42,0,0,0,49.65,20.92ZM40,52.35A12.35,12.35,0,1,1,52.35,40,12.37,12.37,0,0,1,40,52.35ZM52.38,30.7a3,3,0,1,1,3-3A3,3,0,0,1,52.38,30.7Z"
         id="path4"
         style="fill:#e4c3de;fill-opacity:1" />
      <circle
         cx="40"
         cy="40"
         r="7.55"
         id="circle6"
         style="fill:#e4c3de;fill-opacity:1" />
      <path
         d="M40,0A40,40,0,1,0,80,40,40,40,0,0,0,40,0ZM63.88,49.65A14.25,14.25,0,0,1,49.65,63.88H30.35A14.25,14.25,0,0,1,16.12,49.65V30.35A14.25,14.25,0,0,1,30.35,16.12H49.65A14.25,14.25,0,0,1,63.88,30.35Z"
         id="path8"
         style="fill:#e4c3de;fill-opacity:1" />
    </g>
  </g>
</svg>
