<?xml version="1.0" encoding="UTF-8" standalone="no"?>
<svg
   viewBox="0 0 80 80"
   version="1.1"
   id="svg8"
   sodipodi:docname="twitter.svg"
   inkscape:version="1.1.1 (3bf5ae0d25, 2021-09-20)"
   xmlns:inkscape="http://www.inkscape.org/namespaces/inkscape"
   xmlns:sodipodi="http://sodipodi.sourceforge.net/DTD/sodipodi-0.dtd"
   xmlns="http://www.w3.org/2000/svg"
   xmlns:svg="http://www.w3.org/2000/svg">
  <defs
     id="defs12" />
  <sodipodi:namedview
     id="namedview10"
     pagecolor="#505050"
     bordercolor="#ffffff"
     borderopacity="1"
     inkscape:pageshadow="0"
     inkscape:pageopacity="0"
     inkscape:pagecheckerboard="1"
     showgrid="false"
     inkscape:zoom="10.4"
     inkscape:cx="39.951923"
     inkscape:cy="40.048077"
     inkscape:window-width="1920"
     inkscape:window-height="1017"
     inkscape:window-x="-8"
     inkscape:window-y="-8"
     inkscape:window-maximized="1"
     inkscape:current-layer="레이어_2" />
  <title
     id="title2" />
  <g
     data-name="레이어 2"
     id="레이어_2">
    <g
       data-name="레이어 1"
       id="레이어_1-2"
       style="fill:#e4c3de;fill-opacity:1">
      <path
         d="M40,0A40,40,0,1,0,80,40,40,40,0,0,0,40,0ZM64.76,28.37a19.19,19.19,0,0,1-3.86,4.24,1.65,1.65,0,0,0-.62,1.29V34a27.13,27.13,0,0,1-1.74,9.4A27.51,27.51,0,0,1,53.41,52,25.27,25.27,0,0,1,45,58.31a27,27,0,0,1-11.45,2.43,26.65,26.65,0,0,1-13.39-3.61.77.77,0,0,1-.37-.85.74.74,0,0,1,.73-.56h1.12a17.92,17.92,0,0,0,10-3A9.73,9.73,0,0,1,24,46a.51.51,0,0,1,.58-.65,8.74,8.74,0,0,0,1.64.16h.21a9.72,9.72,0,0,1-5.67-9,.51.51,0,0,1,.75-.44,8.7,8.7,0,0,0,2.21.86,9.72,9.72,0,0,1-1.58-11.8.51.51,0,0,1,.83-.07,25.46,25.46,0,0,0,17.5,9.35h0a.36.36,0,0,0,.27-.12.35.35,0,0,0,.09-.27,10.36,10.36,0,0,1,.23-3.58,9.41,9.41,0,0,1,6.34-6.78,10.38,10.38,0,0,1,3.08-.47A9.71,9.71,0,0,1,57,25.69a1.26,1.26,0,0,0,.83.32,1.21,1.21,0,0,0,.3,0,17.92,17.92,0,0,0,4.75-2,.51.51,0,0,1,.74.59A9.68,9.68,0,0,1,61,28.67a17.84,17.84,0,0,0,3.11-1A.51.51,0,0,1,64.76,28.37Z"
         id="path4"
         style="fill:#e4c3de;fill-opacity:1" />
    </g>
  </g>
</svg>
